<?xml version="1.0" encoding="UTF-8" standalone="no"?>
<svg
   viewBox="0 0 32 32"
   version="1.1"
   id="svg1"
   sodipodi:docname="javascript.svg"
   inkscape:version="1.4.2 (f4327f4, 2025-05-13)"
   xmlns:inkscape="http://www.inkscape.org/namespaces/inkscape"
   xmlns:sodipodi="http://sodipodi.sourceforge.net/DTD/sodipodi-0.dtd"
   xmlns="http://www.w3.org/2000/svg"
   xmlns:svg="http://www.w3.org/2000/svg">
  <defs
     id="defs1" />
  <sodipodi:namedview
     id="namedview1"
     pagecolor="#ffffff"
     bordercolor="#000000"
     borderopacity="0.25"
     inkscape:showpageshadow="2"
     inkscape:pageopacity="0.0"
     inkscape:pagecheckerboard="0"
     inkscape:deskcolor="#d1d1d1"
     inkscape:zoom="25.21875"
     inkscape:cx="15.980173"
     inkscape:cy="16"
     inkscape:window-width="1920"
     inkscape:window-height="1009"
     inkscape:window-x="1912"
     inkscape:window-y="-8"
     inkscape:window-maximized="1"
     inkscape:current-layer="svg1" />
  <path
     fill="#f1dd3f"
     d="m 10.02,8.2 h 3.51 v 9.88 c 0,4.42 -2.08,5.98 -5.59,5.98 -0.78,0 -1.95,-0.13 -2.6,-0.39 l 0.39,-2.86 c 0.52,0.26 1.17,0.39 1.82,0.39 1.43,0 2.47,-0.65 2.47,-3.12 z m 6.63,11.96 c 0.91,0.52 2.47,1.04 3.9,1.04 1.69,0 2.47,-0.65 2.47,-1.69 0,-1.04 -0.78,-1.56 -2.6,-2.21 -2.6,-0.91 -4.29,-2.34 -4.29,-4.68 0,-2.73 2.21,-4.68 5.98,-4.68 1.82,0 3.12,0.39 4.03,0.78 l -0.78,2.86 c -0.65,-0.26 -1.69,-0.78 -3.25,-0.78 -1.56,0 -2.34,0.65 -2.34,1.56 0,1.04 0.91,1.43 2.86,2.21 2.73,1.04 4.03,2.47 4.03,4.68 0,2.6 -2.08,4.81 -6.37,4.81 -1.82,0 -3.51,-0.52 -4.42,-0.91 z"
     id="path1"
     style="stroke-width:1.3;fill:#cbcb41;fill-opacity:1" />
</svg>
