<?xml version="1.0" encoding="UTF-8" standalone="no"?>
<svg
   viewBox="0 0 32 32"
   version="1.1"
   id="svg1"
   sodipodi:docname="react.svg"
   inkscape:version="1.4.2 (f4327f4, 2025-05-13)"
   xmlns:inkscape="http://www.inkscape.org/namespaces/inkscape"
   xmlns:sodipodi="http://sodipodi.sourceforge.net/DTD/sodipodi-0.dtd"
   xmlns="http://www.w3.org/2000/svg"
   xmlns:svg="http://www.w3.org/2000/svg">
  <defs
     id="defs1" />
  <sodipodi:namedview
     id="namedview1"
     pagecolor="#ffffff"
     bordercolor="#000000"
     borderopacity="0.25"
     inkscape:showpageshadow="2"
     inkscape:pageopacity="0.0"
     inkscape:pagecheckerboard="0"
     inkscape:deskcolor="#d1d1d1"
     inkscape:zoom="25.21875"
     inkscape:cx="15.980173"
     inkscape:cy="16"
     inkscape:window-width="1920"
     inkscape:window-height="1009"
     inkscape:window-x="1912"
     inkscape:window-y="-8"
     inkscape:window-maximized="1"
     inkscape:current-layer="svg1" />
  <path
     fill="#529bba"
     d="m 23.638852,20.385233 c 0.13,1.43 0.26,2.73 0.26,4.16 0,1.69 -0.91,2.86 -2.21,2.99 -0.65,0.13 -1.43,0 -2.08,-0.26 -1.3,-0.65 -2.47,-1.56 -3.77,-2.34 -0.65,0.52 -1.3,1.04 -2.08,1.56 -0.39,0.26 -0.91,0.52 -1.3,0.65 -2.34,1.04 -4.2900005,-0.13 -4.4200005,-2.73 0,-1.3 0.13,-2.73 0.26,-4.16 -0.78,-0.26 -1.5600003,-0.52 -2.3400003,-1.04 -0.78,-0.39 -1.43,-0.91 -2.08,-1.56 -1.17,-1.17 -1.04,-2.6 0.13,-3.77 1.04,-1.17 2.47,-1.69 3.9000003,-2.21 0.13,0 0.39,-0.13 0.52,-0.13 -0.13,-0.91 -0.26,-1.9500003 -0.39,-2.8600003 0,-0.78 0.13,-1.6900004 0.26,-2.4700004 0.39,-1.43 1.69,-2.08 3.2500005,-1.69 1.56,0.39 2.73,1.3 3.77,2.21 0.26,0.13 0.39,0.39 0.52,0.52 1.04,-0.78 2.08,-1.56 3.25,-2.21 0.78,-0.52 1.69,-0.78 2.6,-0.52 1.3,0.26 2.08,1.43 2.21,3.1200004 v 2.08 c 0,0.6500003 -0.26,1.3000003 -0.39,2.0800003 0.78,0.26 1.43,0.52 2.21,0.91 1.04,0.52 2.08,1.04 2.73,2.08 0.65,0.91 0.65,1.95 0,2.86 -0.65,1.04 -1.69,1.56 -2.73,2.08 -0.78,0.13 -1.43,0.39 -2.08,0.65 z m -7.54,-0.13 c 0.39,0 1.04,-0.13 1.56,-0.13 0.39,0 0.65,-0.13 0.91,-0.52 0.65,-1.04 1.3,-2.08 1.82,-3.25 0.13,-0.26 0.13,-0.65 0,-0.78 -0.65,-1.17 -1.3,-2.21 -1.95,-3.25 -0.13,-0.26 -0.39,-0.39 -0.65,-0.39 -1.17,0 -2.21,0 -3.38,-0.13 -0.65,0 -1.17,0.26 -1.56,0.91 -0.26,0.39 -0.52,0.78 -0.78,1.3 -1.43,2.6 -1.43,1.56 0,4.16 1.56,2.47 0.78,1.95 4.03,2.08 z m -7.5400005,-1.04 c 0.39,-1.04 0.78,-2.08 1.17,-2.99 v -0.52 c -0.39,-1.04 -0.78,-1.95 -1.17,-2.99 -1.3,0.39 -2.6000003,0.91 -3.6400003,1.69 -1.17,0.91 -1.17,2.08 0,2.99 1.04,1.04 2.3400003,1.43 3.6400003,1.82 z m 14.6900005,-6.63 c -0.52,1.17 -0.91,2.21 -1.3,3.25 0,0.13 -0.13,0.26 0,0.26 0.39,1.04 0.78,2.08 1.3,3.38 1.17,-0.65 2.47,-1.17 3.51,-1.82 1.43,-0.91 1.43,-2.21 0,-3.12 -1.04,-0.91 -2.34,-1.3 -3.51,-1.95 z m -13.9100005,-1.3 c 1.1700005,-0.13 2.2100005,-0.26 3.2500005,-0.52 0.13,0 0.26,-0.13 0.26,-0.13 0.65,-0.9100003 1.3,-1.6900003 2.08,-2.6000003 -1.04,-0.9100004 -2.08,-1.8200004 -3.38,-2.3400004 -1.43,-0.52 -2.3400005,0 -2.6000005,1.56 -0.13,1.3000004 0.13,2.6000004 0.39,4.0300007 z m 13.0000005,0 c 0,-0.13 0.13,-0.39 0.13,-0.52 0.26,-1.3000003 0.52,-2.7300003 0,-4.0300007 -0.26,-0.91 -0.91,-1.3 -1.69,-1.17 -1.69,0.26 -2.86,1.43 -4.03,2.4700004 0.65,0.91 1.3,1.69 1.95,2.4700003 l 0.39,0.39 c 1.04,0.13 2.08,0.26 3.25,0.39 z m -13.0000005,9.36 c -0.26,1.43 -0.65,2.73 -0.26,4.16 0.26,1.3 1.1700005,1.82 2.4700005,1.43 1.43,-0.39 2.47,-1.43 3.51,-2.34 -0.65,-0.91 -1.3,-1.69 -2.08,-2.6 -0.13,-0.13 -0.26,-0.26 -0.39,-0.26 -1.04,0 -2.08,-0.13 -3.2500005,-0.39 z m 7.2800005,3.25 c 0.78,1.04 2.34,2.08 3.38,2.47 1.3,0.39 2.21,0 2.47,-1.43 0.26,-1.43 0,-2.73 -0.26,-4.16 -1.17,0.13 -2.34,0.13 -3.38,0.52 -0.78,0.39 -1.17,1.3 -1.69,1.95 -0.13,0.26 -0.26,0.39 -0.52,0.65 z m 0.78,-13.26 c -0.52,-0.6500003 -1.04,-1.1700003 -1.56,-1.8200003 -0.52,0.65 -0.91,1.17 -1.56,1.8200003 z m 0,10.66 h -2.99 c 0.52,0.65 1.04,1.17 1.56,1.82 0.39,-0.65 0.91,-1.17 1.43,-1.82 z m -5.33,-1.3 c -0.52,-0.91 -1.04,-1.69 -1.56,-2.73 -0.26,0.78 -0.5200005,1.43 -0.7800005,2.21 0.6500005,0.26 1.4300005,0.39 2.3400005,0.52 z m 9.1,-2.73 -1.56,2.73 c 0.91,-0.13 1.56,-0.26 2.34,-0.39 -0.13,-0.78 -0.39,-1.43 -0.78,-2.34 z m -10.66,-2.6 1.56,-2.73 c -0.91,0.13 -1.56,0.26 -2.3400005,0.39 0.26,0.91 0.3900005,1.56 0.7800005,2.34 z m 9.1,-2.73 c 0.26,0.52 0.52,0.91 0.78,1.3 0.26,0.39 0.52,0.78 0.78,1.3 0.26,-0.78 0.52,-1.56 0.78,-2.21 -0.78,0 -1.43,-0.13 -2.34,-0.39 z"
     id="path1"
     style="stroke-width:1.3" />
</svg>
