<?xml version="1.0" encoding="UTF-8" standalone="no"?>
<svg
   viewBox="0 0 32 32"
   version="1.1"
   id="svg1"
   sodipodi:docname="typescript.svg"
   inkscape:version="1.4.2 (f4327f4, 2025-05-13)"
   xmlns:inkscape="http://www.inkscape.org/namespaces/inkscape"
   xmlns:sodipodi="http://sodipodi.sourceforge.net/DTD/sodipodi-0.dtd"
   xmlns="http://www.w3.org/2000/svg"
   xmlns:svg="http://www.w3.org/2000/svg">
  <defs
     id="defs1" />
  <sodipodi:namedview
     id="namedview1"
     pagecolor="#ffffff"
     bordercolor="#000000"
     borderopacity="0.25"
     inkscape:showpageshadow="2"
     inkscape:pageopacity="0.0"
     inkscape:pagecheckerboard="0"
     inkscape:deskcolor="#d1d1d1"
     inkscape:zoom="25.21875"
     inkscape:cx="15.980173"
     inkscape:cy="16"
     inkscape:window-width="1920"
     inkscape:window-height="1009"
     inkscape:window-x="1912"
     inkscape:window-y="-8"
     inkscape:window-maximized="1"
     inkscape:current-layer="svg1" />
  <path
     d="m 15.48,10.475 h -4.42 v 13.26 H 7.81 V 10.475 H 3.39 v -2.34 h 11.96 v 2.34 z m 10.01,9.23 c 0,-0.65 -0.26,-1.04 -0.65,-1.43 -0.39,-0.39 -1.17,-0.65 -2.21,-1.04 -1.82,-0.52 -3.25,-1.17 -4.29,-1.95 -0.91,-0.78 -1.43,-1.69 -1.43,-2.99 0,-1.3 0.52,-2.34 1.69,-3.12 1.04,-0.78 2.47,-1.17 4.16,-1.17 1.69,0 3.12,0.52 4.16,1.43 1.04,0.91 1.56,2.08 1.56,3.38 h -2.99 c 0,-0.78 -0.26,-1.3 -0.78,-1.82 -0.52,-0.39 -1.17,-0.65 -2.08,-0.65 -0.78,0 -1.43,0.13 -1.95,0.52 -0.52,0.39 -0.65,0.91 -0.65,1.43 0,0.52 0.26,0.91 0.78,1.3 0.52,0.39 1.3,0.65 2.6,1.04 1.69,0.52 2.99,1.17 3.9,1.95 0.91,0.78 1.3,1.82 1.3,3.12 0,1.3 -0.52,2.47 -1.56,3.12 -1.04,0.78 -2.47,1.17 -4.16,1.17 -1.69,0 -3.25,-0.39 -4.42,-1.3 -1.17,-0.91 -1.95,-2.08 -1.82,-3.77 h 3.12 c 0,0.91 0.26,1.56 0.91,2.08 0.52,0.39 1.43,0.65 2.34,0.65 0.91,0 1.56,-0.13 1.95,-0.52 0.26,-0.39 0.52,-0.91 0.52,-1.43 z"
     fill="#529bba"
     id="path1"
     style="stroke-width:1.3" />
</svg>
